Coordinates
version=1
nRows=10
nColumns=40
inDegrees=yes

Units are S.I. units (second, meters, Newtons, ...)
Angles are in degrees.

endheader
time	pelvis_tilt	pelvis_list	pelvis_rotation	pelvis_tx	pelvis_ty	pelvis_tz	hip_flexion_r	hip_adduction_r	hip_rotation_r	knee_angle_r	knee_angle_r_beta	ankle_angle_r	subtalar_angle_r	mtp_angle_r	hip_flexion_l	hip_adduction_l	hip_rotation_l	knee_angle_l	knee_angle_l_beta	ankle_angle_l	subtalar_angle_l	mtp_angle_l	lumbar_extension	lumbar_bending	lumbar_rotation	arm_flex_r	arm_add_r	arm_rot_r	elbow_flex_r	pro_sup_r	wrist_flex_r	wrist_dev_r	arm_flex_l	arm_add_l	arm_rot_l	elbow_flex_l	pro_sup_l	wrist_flex_l	wrist_dev_l
     41.63500000	     -2.70988906	     -4.83506043	      6.03194599	      0.95383524	      0.91981688	      0.55871982	      1.67929013	      6.10831355	    -16.88752289	     15.98592472	     15.98592472	     19.25723534	     -2.20430398	     -2.08311012	     28.82130687	     -8.84920540	      1.28928588	     23.53258002	     23.53258002	      3.53221735	     -9.90931563	      4.28670947	     -9.50473683	      5.53760311	      3.08985511	     45.98074347	    -18.01136985	     -9.88106139	     66.64171752	     44.98760401	      0.00000000	      0.00000000	    -18.61026985	     -9.60444067	      9.60564383	     32.04561652	     44.76096791	      0.00000000	      0.00000000
     41.65435714	     -2.90303137	     -4.96562813	      6.37415510	      0.95357773	      0.91869174	      0.55624920	      1.45990504	      6.16649705	    -17.02233266	     15.90126100	     15.90126100	     19.46775601	     -2.39096900	     -2.10426634	     28.81218548	     -8.70197803	      1.34458274	     23.59223215	     23.59223215	      3.42595152	     -9.75829022	      4.00227038	     -9.38190126	      5.37559164	      2.95621114	     47.83756405	    -17.92927868	     -9.80383574	     67.73082869	     44.96015765	      0.00000000	      0.00000000	    -18.03533168	     -9.71016268	      9.60332421	     32.18975524	     44.77844635	      0.00000000	      0.00000000
     41.67371429	     -3.18981723	     -4.94535596	      6.76768493	      0.95354367	      0.91756200	      0.55347146	      1.25887791	      6.05061556	    -17.18447702	     15.72380827	     15.72380827	     19.68540145	     -2.60382115	     -2.09281852	     28.92033342	     -8.37569308	      1.42455603	     23.85085220	     23.85085220	      3.47091415	     -9.70121174	      3.76379709	     -9.09247214	      5.05030290	      2.83917274	     49.24401027	    -17.95277565	     -9.75626320	     68.43910841	     44.94219835	      0.00000000	      0.00000000	    -17.26726931	     -9.93721171	      9.55433586	     32.41577924	     44.79935601	      0.00000000	      0.00000000
     41.69307143	     -3.28498028	     -5.13686943	      7.11255676	      0.95367542	      0.91655989	      0.55067055	      0.85582419	      6.22670314	    -17.10995285	     15.50432108	     15.50432108	     19.84765688	     -3.10791976	     -1.93301555	     29.03179519	     -8.32739462	      1.59645655	     24.50074055	     24.50074055	      3.44946724	     -9.83102146	      2.49337259	     -9.14342821	      5.05914081	      2.49353285	     50.47002497	    -17.94587208	     -8.96824410	     71.07410486	     44.84837803	      0.00000000	      0.00000000	    -16.58490132	     -9.99996055	      9.39184445	     32.73151606	     44.86328286	      0.00000000	      0.00000000
     41.71242857	     -3.51868737	     -5.06927842	      7.39796404	      0.95398105	      0.91577963	      0.54760583	      0.56967784	      6.03434942	    -17.24004510	     15.34604258	     15.34604258	     19.99411120	     -3.25288756	     -1.89899196	     29.12097509	     -7.96311335	      1.85304330	     25.04006557	     25.04006557	      3.78478268	    -10.03720745	      2.19141131	     -8.93899739	      4.67132901	      2.47723068	     51.65409027	    -18.03210157	     -8.95207619	     71.52515848	     44.83962745	      0.00000000	      0.00000000	    -15.56761233	    -10.20061993	      9.32106931	     33.04061923	     44.89059817	      0.00000000	      0.00000000
     41.73178571	     -3.58357351	     -5.20228711	      7.64231857	      0.95439856	      0.91511882	      0.54436907	      0.10763541	      6.06005090	    -17.32635316	     15.16136026	     15.16136026	     20.10230428	     -3.29676240	     -1.83875820	     29.29984546	     -7.78505274	      2.36189963	     26.04042569	     26.04042569	      4.26120926	    -10.73428356	      1.86766769	     -8.98155539	      4.63358735	      2.56140054	     53.01390724	    -18.25885758	     -8.86711743	     72.21442926	     44.82405831	      0.00000000	      0.00000000	    -14.50426381	    -10.33094185	      9.21225138	     33.32932477	     44.92801445	      0.00000000	      0.00000000
     41.75114286	     -3.74766499	     -5.28009307	      7.81122108	      0.95496675	      0.91464083	      0.54102174	     -0.34316668	      6.01593183	    -17.42860803	     14.82559071	     14.82559071	     20.09829675	     -3.23844934	     -1.71666450	     29.44700082	     -7.51472603	      2.92257087	     26.85053089	     26.85053089	      4.77085864	    -11.51005141	      1.79037809	     -8.87759151	      4.52669176	      2.69310467	     53.92192987	    -18.54789646	     -8.69095122	     72.74756440	     44.81061575	      0.00000000	      0.00000000	    -13.38751497	    -10.42062826	      9.04828091	     33.59442955	     44.97619180	      0.00000000	      0.00000000
     41.77050000	     -3.91205277	     -5.28725764	      7.89065029	      0.95570860	      0.91441577	      0.53753499	     -0.80406078	      5.85748986	    -17.49879429	     14.52298869	     14.52298869	     20.05062650	     -3.05529693	     -1.61628123	     29.51773126	     -7.18981775	      3.39411331	     27.59696386	     27.59696386	      5.27390971	    -12.24518345	      1.87282648	     -8.76714202	      4.36609932	      2.92360503	     54.76170251	    -18.83222724	     -8.54736420	     73.00677647	     44.80668382	      0.00000000	      0.00000000	    -12.23452610	    -10.54582339	      8.85477779	     33.86349567	     45.02732431	      0.00000000	      0.00000000
     41.78985714	     -4.09114604	     -5.30313212	      7.89103975	      0.95654339	      0.91443146	      0.53396129	     -1.29044353	      5.67040082	    -17.67493709	     14.15540022	     14.15540022	     19.90972769	     -2.57190851	     -1.53176452	     29.51902823	     -6.83733405	      3.95720311	     28.21897462	     28.21897462	      5.86413460	    -13.15186137	      2.50739942	     -8.61876918	      4.22345063	      3.33867572	     55.37975837	    -19.33830066	     -8.32357360	     72.86238528	     44.81768498	      0.00000000	      0.00000000	    -10.98615441	    -10.59267272	      8.50467156	     34.07711337	     45.10688783	      0.00000000	      0.00000000
     41.80921429	     -4.28637571	     -5.27983986	      7.77932431	      0.95746445	      0.91460346	      0.53037421	     -1.69709642	      5.37844633	    -17.88452829	     13.94150604	     13.94150604	     19.76183056	     -1.93566468	     -1.54733456	     29.45111720	     -6.50216646	      4.31481052	     28.74819141	     28.74819141	      6.57841021	    -13.86269505	      3.43870965	     -8.46892450	      4.07712059	      3.74419082	     55.97989639	    -19.70905082	     -8.10734847	     72.25550095	     44.84737573	      0.00000000	      0.00000000	     -9.83935236	    -10.63493203	      8.03812230	     34.24863522	     45.20304845	      0.00000000	      0.00000000
